HIERARCHY
ROOT Pelvis
{
	OFFSET 0.000000 0.941512 0.000000
	CHANNELS 6 Xposition Yposition Zposition Zrotation Yrotation Xrotation 
	JOINT Pelvis_L_Hip
	{
		OFFSET 0.000000 0.000000 0.000000
		CHANNELS 3 Zrotation Yrotation Xrotation
		JOINT L_Hip
		{
			OFFSET 0.062321 -0.080322 -0.016990
			CHANNELS 3 Zrotation Yrotation Xrotation
			JOINT L_Knee
			{
				OFFSET 0.093051 -0.381305 -0.029784
				CHANNELS 3 Zrotation Yrotation Xrotation
				JOINT L_Ankle
				{
					OFFSET -0.010371 -0.431000 -0.033614
					CHANNELS 3 Zrotation Yrotation Xrotation
					End Site #name: L_Foot
					{
						OFFSET 0.069299 -0.038670 0.119418
					}
				}
			}
		}
	}
	JOINT Pelvis_R_Hip
	{
		OFFSET 0.000000 0.000000 0.000000
		CHANNELS 3 Zrotation Yrotation Xrotation
		JOINT R_Hip
		{
			OFFSET -0.055334 -0.094904 -0.002373
			CHANNELS 3 Zrotation Yrotation Xrotation
			JOINT R_Knee
			{
				OFFSET -0.064207 -0.384370 -0.019592
				CHANNELS 3 Zrotation Yrotation Xrotation
				JOINT R_Ankle
				{
					OFFSET 0.025418 -0.419734 -0.065953
					CHANNELS 3 Zrotation Yrotation Xrotation
					End Site #name: R_Foot
					{
						OFFSET -0.057233 -0.039888 0.132134
					}
				}
			}
		}
	}
	JOINT Pelvis_Spine1
	{
		OFFSET 0.000000 0.000000 0.000000
		CHANNELS 3 Zrotation Yrotation Xrotation
		JOINT Spine1
		{
			OFFSET -0.005562 0.124093 -0.043360
			CHANNELS 3 Zrotation Yrotation Xrotation
			JOINT Spine2
			{
				OFFSET 0.012244 0.139499 0.029894
				CHANNELS 3 Zrotation Yrotation Xrotation
				JOINT Spine3
				{
					OFFSET -0.002556 0.056561 0.009225
					CHANNELS 3 Zrotation Yrotation Xrotation
					JOINT Spine3_Neck
					{
						OFFSET 0.000000 0.000000 0.000000
						CHANNELS 3 Zrotation Yrotation Xrotation
						JOINT Neck
						{
							OFFSET -0.005205 0.217920 -0.024551
							CHANNELS 3 Zrotation Yrotation Xrotation
							End Site #name: Head
							{
								OFFSET 0.002365 0.091850 0.046637
							}
						}
					}
					JOINT Spine3_L_Collar
					{
						OFFSET 0.000000 0.000000 0.000000
						CHANNELS 3 Zrotation Yrotation Xrotation
						JOINT L_Collar
						{
							OFFSET 0.072225 0.116603 -0.009480
							CHANNELS 3 Zrotation Yrotation Xrotation
							JOINT L_Shoulder
							{
								OFFSET 0.115937 -0.058643 -0.021018
								CHANNELS 3 Zrotation Yrotation Xrotation
								JOINT L_Elbow
								{
									OFFSET 0.021994 -0.254722 -0.024492
									CHANNELS 3 Zrotation Yrotation Xrotation
									End Site #name: L_Wrist
									{
										OFFSET 0.048810 -0.240214 0.103329
									}
								}
							}
						}
					}
					JOINT Spine3_R_Collar
					{
						OFFSET 0.000000 0.000000 0.000000
						CHANNELS 3 Zrotation Yrotation Xrotation
						JOINT R_Collar
						{
							OFFSET -0.073372 0.120704 -0.024611
							CHANNELS 3 Zrotation Yrotation Xrotation
							JOINT R_Shoulder
							{
								OFFSET -0.108089 -0.054969 -0.020504
								CHANNELS 3 Zrotation Yrotation Xrotation
								JOINT R_Elbow
								{
									OFFSET -0.033684 -0.260739 0.009889
									CHANNELS 3 Zrotation Yrotation Xrotation
									End Site #name: R_Wrist
									{
										OFFSET -0.067980 -0.232763 0.118463
									}
								}
							}
						}
					}
				}
			}
		}
	}
}
MOTION
Frames: 9
Frame Time: 0.041667
0.100393 0.962717 1.317188 -4.454559 41.475386 -8.946206 0.000000 0.000000 0.000000 -12.305633 -0.623659 -4.047484 -2.398692 -0.176970 8.174124 10.762351 27.929201 5.451151 0.000000 0.000000 0.000000 16.029801 3.662242 -18.921125 -41.915820 7.515076 16.219694 58.712875 64.477906 44.489227 0.000000 0.000000 0.000000 -6.784611 1.155710 -5.018277 3.426803 -0.698505 2.435713 10.924610 26.694127 13.523706 0.000000 0.000000 0.000000 -16.409302 5.290720 -2.271488 0.000000 0.000000 0.000000 10.444455 18.548069 21.473936 -18.072506 -3.428893 -17.021131 1.718694 -1.568235 -11.521005 0.000000 0.000000 0.000000 -29.626274 22.396383 -28.538350 20.625007 -6.191744 19.708471 12.165376 14.110366 -16.510361 
0.100476 0.959367 1.325149 -4.410260 44.022867 -8.515270 0.000000 0.000000 0.000000 -12.602456 -0.487311 -3.666362 -4.144152 -0.011446 2.428568 18.935835 41.311252 13.478342 0.000000 0.000000 0.000000 18.282121 3.428288 -18.143869 -41.511812 5.159342 10.229380 81.339529 64.805378 65.615676 0.000000 0.000000 0.000000 -8.179033 1.226169 -7.516978 3.523746 -0.761608 4.267729 12.309054 28.682122 14.608203 0.000000 0.000000 0.000000 -18.815926 5.283630 -4.342195 0.000000 0.000000 0.000000 9.390314 21.490738 24.166670 -16.382797 -4.257260 -20.428402 3.270871 -0.412540 -9.911780 0.000000 0.000000 0.000000 -31.106916 24.558353 -33.943453 19.742268 -6.905037 22.447784 11.614191 12.618980 -14.341969 
0.099417 0.955703 1.331798 -3.703063 44.918063 -7.571170 0.000000 0.000000 0.000000 -13.612639 -0.363399 -3.251879 -3.437941 -0.193935 -3.518906 30.703363 51.940215 26.188652 0.000000 0.000000 0.000000 20.756933 3.048710 -16.781204 -40.066480 3.188547 4.758814 103.783569 59.624402 86.486054 0.000000 0.000000 0.000000 -9.444455 1.163443 -10.316114 3.005728 -0.684698 6.294325 13.684315 30.466085 15.877209 0.000000 0.000000 0.000000 -21.900991 5.085127 -7.118572 0.000000 0.000000 0.000000 7.726912 25.783853 27.336149 -14.095470 -5.135165 -24.785355 4.548490 0.552861 -8.209520 0.000000 0.000000 0.000000 -32.905133 27.779775 -41.217587 18.664238 -7.920862 26.370037 11.070152 10.728014 -11.178239 
0.097811 0.952332 1.337751 -2.537554 44.166151 -6.141010 0.000000 0.000000 0.000000 -15.069827 -0.336588 -3.053156 -0.787977 -0.332921 -8.229372 44.695268 58.308851 41.147131 0.000000 0.000000 0.000000 23.326775 2.491449 -14.944379 -37.750836 1.761692 0.122086 115.849015 48.972719 97.709025 0.000000 0.000000 0.000000 -10.494818 0.971713 -13.530195 2.083491 -0.487152 8.159857 15.060047 31.760337 17.482401 0.000000 0.000000 0.000000 -25.589220 4.491715 -10.846313 0.000000 0.000000 0.000000 5.418422 31.760875 31.135475 -11.462692 -5.924390 -29.891745 5.697826 1.340797 -6.897805 0.000000 0.000000 0.000000 -35.123122 32.010402 -50.719799 17.232258 -9.328436 32.028267 10.814468 9.004227 -7.760287 
0.096238 0.949000 1.343138 -1.231525 41.791812 -4.196573 0.000000 0.000000 0.000000 -16.456469 -0.492161 -3.359976 2.336803 -0.303911 -11.265499 57.482240 61.469979 54.241925 0.000000 0.000000 0.000000 26.043277 1.746565 -12.843405 -35.399658 0.742829 -3.805038 118.542377 32.714605 101.275201 0.000000 0.000000 0.000000 -11.094309 0.625802 -17.764888 0.703919 -0.133658 9.947645 16.342856 32.232662 19.496889 0.000000 0.000000 0.000000 -29.453126 3.227447 -15.954193 0.000000 0.000000 0.000000 1.985862 39.662873 35.242951 -8.302903 -6.505029 -35.851882 6.797163 2.016554 -5.951817 0.000000 0.000000 0.000000 -37.704151 37.302909 -62.905627 14.870328 -11.021746 39.979551 11.101462 7.926286 -4.920584 
0.095169 0.945879 1.347923 -0.379867 38.267062 -2.181653 0.000000 0.000000 0.000000 -17.678153 -0.958758 -4.462819 5.630754 -0.126397 -12.587917 67.997472 63.045212 64.876278 0.000000 0.000000 0.000000 29.316423 0.614927 -10.240575 -33.926264 -0.244785 -7.523381 112.810839 7.873599 100.707571 0.000000 0.000000 0.000000 -10.855414 0.218059 -22.553532 -0.815002 0.303179 11.344811 16.941956 31.643529 21.384949 0.000000 0.000000 0.000000 -32.644441 1.156363 -22.369055 0.000000 0.000000 0.000000 -3.650902 49.494962 38.672326 -4.278021 -6.633710 -42.820589 7.987744 2.695218 -5.132772 0.000000 0.000000 0.000000 -40.398072 43.611551 -77.683749 10.957340 -12.520643 50.485697 12.205613 7.681824 -2.890914 
0.096103 0.943572 1.350126 -0.053317 34.838920 -0.505845 0.000000 0.000000 0.000000 -18.354861 -1.608370 -6.012736 7.992654 0.026891 -12.666738 75.600433 63.488510 73.533447 0.000000 0.000000 0.000000 32.146316 -0.892358 -7.198838 -32.704065 -0.998658 -10.445802 97.466952 -22.871995 100.811022 0.000000 0.000000 0.000000 -9.648477 0.003406 -26.515519 -2.351631 0.776487 11.945596 16.478637 30.066216 22.532452 0.000000 0.000000 0.000000 -34.493972 -1.443386 -29.125659 0.000000 0.000000 0.000000 -14.481278 59.674430 37.953955 1.032552 -5.915850 -50.536267 9.506114 3.566009 -3.726251 0.000000 0.000000 0.000000 -42.193898 50.616039 -93.524485 4.906555 -12.754849 63.026668 14.301304 8.087096 -1.149420 
0.099283 0.943257 1.348422 0.131259 32.065739 0.754884 0.000000 0.000000 0.000000 -19.058633 -2.147575 -7.211047 9.811958 0.124487 -12.837133 80.487052 63.293302 80.147620 0.000000 0.000000 0.000000 33.485129 -2.439431 -4.044561 -31.269259 -1.229385 -11.953295 76.819166 -44.821837 107.878938 0.000000 0.000000 0.000000 -8.034498 0.064184 -28.878320 -3.848219 1.225681 11.767697 15.512083 27.856898 22.987508 0.000000 0.000000 0.000000 -35.187505 -4.194615 -35.576067 0.000000 0.000000 0.000000 -34.933020 67.525908 27.700730 6.895064 -4.239193 -58.141124 11.492312 4.711905 -0.976044 0.000000 0.000000 0.000000 -42.729728 58.122119 -108.828569 -2.834048 -10.568954 76.332575 17.244090 8.860659 0.663709 
0.103688 0.943252 1.343054 0.196340 29.706820 1.474743 0.000000 0.000000 0.000000 -19.662242 -2.628157 -8.238341 11.144344 0.190768 -12.809813 84.354190 62.921227 85.606065 0.000000 0.000000 0.000000 33.601989 -3.920663 -0.813576 -29.824722 -1.097963 -12.408633 61.500540 -52.727915 116.610548 0.000000 0.000000 0.000000 -6.840596 0.216419 -30.161526 -4.563300 1.443120 11.658457 14.538992 25.547606 23.095683 0.000000 0.000000 0.000000 -34.718626 -6.560096 -41.391861 0.000000 0.000000 0.000000 -65.339114 70.159045 6.696635 12.321380 -1.918834 -64.309555 13.595168 5.831903 2.608400 0.000000 0.000000 0.000000 -42.616945 65.648512 -121.793543 -10.831027 -5.602601 87.510229 21.084385 9.911801 2.703733 
